<svg version="1.2" xmlns="http://www.w3.org/2000/svg" viewBox="0 0 1563 1563" width="500" height="500">
	<title>codxvoid-logo (2)</title>
	<style>
		.s0 { fill: #1c2c3f } 
		.s1 { fill: #1c2b3d } 
		.s2 { fill: #00e8f2 } 
	</style>
	<g id="Background">
		<path id="Path 0" class="s0" d="m0 781.5v781.5h1563v-1563h-1563z"/>
		<path id="Path 1" fill-rule="evenodd" class="s1" d="m1115.5 218.7c3.3 0.2 8.3 0.2 11 0 2.8-0.2 0-0.3-6-0.3-6 0-8.3 0.1-5 0.3zm88.8 275.8c0 3.9 0.2 5.2 0.4 3 0.2-2.2 0.2-5.4 0-7-0.2-1.6-0.4 0.1-0.4 4zm63 14.5c0 4.1 0.2 5.9 0.4 4 0.2-1.9 0.2-5.3 0-7.5-0.2-2.2-0.4-0.6-0.4 3.5zm-60.9 9.5c0 5 0.1 7.2 0.3 5 0.2-2.2 0.2-6.3 0-9-0.2-2.8-0.3-1-0.3 4zm63 19c0 6 0.1 8.3 0.3 5 0.2-3.3 0.2-8.3 0-11-0.2-2.8-0.3 0-0.3 6zm-61 13.5c0 6.3 0.1 8.8 0.3 5.5 0.2-3.3 0.2-8.5 0-11.5-0.2-3-0.3-0.3-0.3 6zm63 31.5c0 7.1 0.1 9.9 0.3 6 0.2-3.9 0.2-9.7 0-13-0.2-3.3-0.3-0.1-0.3 7zm-2.1 4.5c0 4.1 0.2 5.9 0.4 4 0.2-1.9 0.2-5.3 0-7.5-0.2-2.2-0.4-0.6-0.4 3.5zm-59 3c0 4.7 0.2 6.5 0.4 4 0.2-2.5 0.2-6.3 0-8.5-0.2-2.2-0.4-0.2-0.4 4.5zm2-1c0 4.1 0.2 5.9 0.4 4 0.2-1.9 0.2-5.3 0-7.5-0.2-2.2-0.4-0.6-0.4 3.5zm36.7 8.7c3 0.2 7.5 0.2 10 0 2.5-0.2 0-0.3-5.5-0.3-5.5 0-7.5 0.1-4.5 0.3zm1.5 2c3.8 0.2 9.7 0.2 13 0 3.3-0.2 0.2-0.3-7-0.3-7.2 0-9.8 0.1-6 0.3zm-934.5 14c2.5 0.2 6.1 0.2 8 0 1.9-0.2-0.1-0.4-4.5-0.4-4.4 0-6 0.2-3.5 0.4zm-101.3 111.9c2.4 0.2 4.3 0.9 4.3 1.4 0 0.5-2 1-4.5 1-2.5 0-4.5 0.5-4.5 1 0 0.5 1.2 1.4 2.7 1.9 2.5 0.8 2.6 1 0.5 1-1.2 0.1-2.4 0.6-2.7 1.1-0.3 0.5-0.1 1 0.5 1 0.6 0 1 0.9 1 2 0 1.1 0.4 2 1 2 0.6 0 1 0.9 1 2q0 2 2 2c1.1 0 2 0.5 2 1 0 0.5 1.8 1 4 1 2.2 0 4-0.5 4-1 0-0.5 0.9-1 2-1 1.2 0 2-0.7 2-1.8 0-0.9 0.9-2.3 2-3 1.1-0.6 1.8-1.7 1.5-2.2-0.3-0.5-1.7-1-3.3-1-2.1 0-2.4-0.2-1.2-1 0.8-0.5 3-1 4.7-1 1.9 0 3.1-0.4 2.8-1-0.3-0.5-2.2-1-4.3-1-2.7 0-3.3-0.3-2.2-1 0.8-0.5 2.8-1 4.5-1.1 1.7-0.1 0.3-0.5-3-0.9-3.3-0.4-9.4-1-13.5-1.2-4.1-0.3-5.6-0.4-3.3-0.2zm1031.3 19.1c4.7 0.2 11.9 0.2 16 0 4.1-0.1 0.3-0.3-8.5-0.3-8.8 0-12.2 0.2-7.5 0.3zm-1 2c4.1 0.2 10.7 0.2 14.5 0 3.8-0.1 0.5-0.3-7.5-0.3-8 0-11.1 0.2-7 0.3zm-34.6 17.8c0 9.9 0.2 13.7 0.3 8.5 0.2-5.2 0.2-13.3 0-18-0.1-4.7-0.3-0.4-0.3 9.5zm59 1.5c0 10.2 0.2 14.2 0.3 9 0.2-5.2 0.2-13.5 0-18.5-0.1-5-0.3-0.7-0.3 9.5zm2 8c0 14.6 0.2 20.4 0.3 13 0.2-7.4 0.2-19.4 0-26.5-0.1-7.1-0.3-1.1-0.3 13.5zm-59-8c0 9.1 0.2 12.7 0.3 8 0.2-4.7 0.2-12.1 0-16.5-0.1-4.4-0.3-0.6-0.3 8.5zm-4 62c0 6.9 0.1 9.6 0.3 6 0.2-3.6 0.2-9.2 0-12.5-0.2-3.3-0.3-0.4-0.3 6.5zm-1003.4-3.3c2.5 0.2 6.1 0.2 8 0 1.9-0.2-0.1-0.4-4.5-0.4-4.4 0-6 0.2-3.5 0.4zm0.5 2c1.7 0.2 4.8 0.2 7 0 2.2-0.2 0.9-0.4-3-0.4-3.8 0-5.6 0.2-4 0.4zm53.9 12.3c0 7.4 0.1 10.4 0.3 6.5 0.2-3.9 0.2-9.9 0-13.5-0.2-3.6-0.3-0.4-0.3 7zm950.9-5.5c0 3.9 0.2 5.2 0.4 3 0.2-2.2 0.2-5.4 0-7-0.2-1.6-0.4 0.1-0.4 4zm57 1c0 3.9 0.2 5.2 0.4 3 0.2-2.2 0.2-5.4 0-7-0.2-1.6-0.4 0.1-0.4 4zm2.1 7.5c0 8 0.2 11.4 0.3 7.5 0.2-3.9 0.2-10.4 0-14.5-0.1-4.1-0.3-1-0.3 7zm-1071 11.5c0 6.6 0.1 9.1 0.3 5.5 0.2-3.6 0.2-9 0-12-0.2-3-0.3-0.1-0.3 6.5zm1007.9 14.5c0 4.7 0.2 6.5 0.4 4 0.2-2.5 0.2-6.3 0-8.5-0.2-2.2-0.4-0.2-0.4 4.5zm-944.9 8.5c0 6.6 0.1 9.1 0.3 5.5 0.2-3.6 0.2-9 0-12-0.2-3-0.3-0.1-0.3 6.5zm1006 1.5c0 5.8 0.1 8 0.3 5 0.2-3 0.2-7.8 0-10.5-0.2-2.8-0.3-0.3-0.3 5.5zm-1067 10.5c0 5 0.1 7.2 0.3 5 0.2-2.2 0.2-6.3 0-9-0.2-2.8-0.3-1-0.3 4zm1003.9 8c0 4.4 0.2 6 0.4 3.5 0.2-2.5 0.2-6.1 0-8-0.2-1.9-0.4 0.1-0.4 4.5zm-941 10c0 4.4 0.2 6 0.4 3.5 0.2-2.5 0.2-6.1 0-8-0.2-1.9-0.4 0.1-0.4 4.5zm-61 8.5c0 4.1 0.2 5.9 0.4 4 0.2-1.9 0.2-5.3 0-7.5-0.2-2.2-0.4-0.6-0.4 3.5zm63 14.5c0 3.9 0.2 5.2 0.4 3 0.2-2.2 0.2-5.4 0-7-0.2-1.6-0.4 0.1-0.4 4zm82.7 280.2c3 0.2 7.5 0.2 10 0 2.5-0.2 0-0.3-5.5-0.3-5.5 0-7.5 0.1-4.5 0.3zm-3 2c4.1 0.2 10.7 0.2 14.5 0 3.9-0.1 0.5-0.3-7.5-0.3-8 0-11.1 0.2-7 0.3zm591.9 26.8c-1 1.1-1.1 1.5-0.2 1.5 0.7 0 1.3 0.3 1.3 0.8 0 0.4 1.1 1.3 2.5 2 2.1 1 2.8 0.9 4-0.3 1.3-1.3 1.3-1.4-0.7-1-1.3 0.3-3.1-0.2-4-1-1-0.8-1.6-2-1.3-2.5 0.2-0.5 0.3-1 0.2-1-0.1 0-0.9 0.7-1.8 1.5zm12 8c-1.1 1.2-1.1 1.6-0.1 1.5 0.6 0 1.4-0.6 1.6-1.2 0.2-1 0.8-0.8 2.2 0.4 1 1 2.5 1.8 3.2 1.8 0.6 0 1.4-0.6 1.6-1.2 0.2-0.8-0.6-1.2-2-1-1.3 0.1-2.4-0.3-2.4-0.8 0-0.5-0.6-1-1.4-1-0.8 0-2 0.7-2.7 1.5zm33.7 18c-0.4 1 0 1.5 1.4 1.5 1.1 0 2.1 0.4 2.3 0.9 0.1 0.5 1.6 1 3.2 1.1 1.7 0.1 4.1 0.1 5.5 0.1 2-0.2 1.6-0.5-2-1.7-2.5-0.9-4.9-2-5.5-2.5-0.5-0.5-1.7-0.9-2.7-0.9-0.9 0-1.9 0.7-2.2 1.5zm9.8 5.5c-0.2 0.3-0.1 0.8 0.1 1.3 0.3 0.4 1.6 0.7 3 0.7 1.4 0 2.5 0.5 2.5 1 0 0.5 0.9 1 2 1 1.1 0 2.2 0.5 2.5 1 0.3 0.5 1.5 1 2.8 1 1.2-0.1 2.9 0.6 3.7 1.5 0.8 0.9 2.2 1.5 3 1.5 0.8 0 2.2 0.6 3 1.5 0.8 0.9 2.3 1.6 3.3 1.5 0.9 0 1.7 0.5 1.7 1 0 0.5 2.3 1 5 1 2.8 0 5 0.5 5 1 0 0.5 2.3 1 5 1 2.8 0 5 0.5 5 1 0 0.6 2.3 0.9 5.4 0.8 3.9-0.2 5.2 0 5 1-0.3 0.8 0.7 1.2 2.6 1.2 1.7 0 3 0.5 3 1 0 0.5 0.5 1 1 1 0.6 0 1-0.6 1-1.2 0-0.8 2.2-1.6 5.7-2 3.7-0.5 7.2-0.3 9.7 0.5 3.1 1 4 0.9 4.3 0 0.2-0.8 2.1-1.3 5.3-1.3 2.8 0 5-0.5 5-1 0-0.5 1.7-1 3.8-1 2.6 0 4.2-0.6 5.2-2 0.9-1.3 2.6-2 4.5-2 2.7 0.1 2.9-0.1 1.5-1.5-1.4-1.6-1.1-1.6 4-1.1 4.7 0.6 5.1 0.5 3-0.6l-2.5-1.1c3.9-0.7 5.4-0.3 6 0.6 0.6 0.7 1.6 1.2 2.3 1 0.6-0.1 1.2-1 1.2-1.8 0-0.8-0.9-1.5-2-1.5-1.1 0-2.2-0.5-2.5-1-0.3-0.5-0.9-0.8-1.5-0.5-0.5 0.3-1 0-1-0.5 0-0.5-0.6-1-1.2-1-0.7 0-1 0.2-0.5 0.5 0.4 0.3 0 1.3-0.9 2.3-1.4 1.5-1.9 1.5-3.8 0.3-1.1-0.7-1.8-1-1.4-0.5 0.4 0.5 0 1.4-1 2.1-0.9 0.7-2.5 1.3-3.4 1.3-1 0-1.8-0.5-1.8-1 0-0.5-0.7-1-1.5-1-0.8 0-1.9 0.9-2.5 2q-1 2-4 2c-1.6 0-3.1-0.4-3.2-0.9-0.2-0.6-3-0.7-7.3-0.2-3.8 0.5-5.6 0.9-4 1.1 2.6 0.2 2.4 0.3-1.5 1.1-2.5 0.6-7 0.7-10 0.3-4.5-0.6-5.1-0.8-3-1.5 2-0.6 1.6-0.7-2-0.8-2.5-0.1-6.3-0.4-8.5-0.8-3-0.5-3.8-0.4-3.2 0.5 0.5 0.8-0.3 1.2-2.5 1.2-2.1 0-4-0.7-5-2-1-1.1-2.5-2-3.3-2-0.8 0-1.3 0.5-1 1 0.3 0.5-0.6 1-2 1-1.4 0-3.2-0.7-4-1.5-0.8-0.8-1.2-1.7-0.8-2 0.3-0.3 0.1-0.5-0.5-0.5-0.7 0-1.3 0.4-1.4 0.9-0.2 0.5-2.3 1.1-4.8 1.4-2.5 0.3-3.6 0.4-2.5 0.1 1.1-0.3 2.3-0.9 2.7-1.2 0.3-0.4 0-1.3-0.8-1.9-0.8-0.7-1.4-0.8-1.4-0.3 0 0.5-0.9 1-2 1-1.1 0-1.8 0.3-1.6 0.8 0.2 0.4-0.9 0.6-2.5 0.5-1.6-0.2-2.9-0.8-2.9-1.3 0-0.5 1.1-0.8 2.5-0.5 1.4 0.3 2.5 0.1 2.5-0.4 0-0.5-1.5-1.1-3.3-1.5-2.6-0.5-2.9-0.9-1.7-1.7 1.2-0.8 1.1-0.9-0.5-0.5-1.1 0.2-3.9 0.7-6.2 1-2.6 0.4-4.3 0.2-4.3-0.4 0-0.5 1-1.2 2.3-1.4 1.2-0.2 0-0.3-2.6-0.2-2.7 0-5 0.3-5.3 0.6zm127.9 1.6c0.9 0.2 1.7 0.9 1.7 1.4 0 0.6-1.6 0.7-4.2 0.3-3.2-0.5-4.1-0.3-3.5 0.5 0.4 0.7 1.4 1 2.2 0.7 0.8-0.3 1.5 0 1.5 0.5 0 0.5 0.9 1 2 1 1.1 0 2-0.5 2-1 0-0.5 0.9-1 1.9-1 1 0 1.6-0.4 1.3-1-0.4-0.5-2-1.1-3.7-1.3-1.6-0.3-2.2-0.3-1.2-0.1zm-60.3 19.4c0 0.6 2.7 1 6 1 3.3 0 6-0.4 6-1 0-0.6-2.7-1-6-1-3.3 0-6 0.4-6 1z"/>
		<path id="Path 2" class="s2" d="m1107.5 222c-3.3 0.4-9.8 1.8-14.5 3.1-4.7 1.2-13 4.1-18.5 6.4-5.5 2.4-13.2 6-17 8.1-3.8 2.1-12 7.2-18 11.3-6 4.1-15.5 11-21 15.5-5.5 4.5-15.4 13.1-22 19.2-6.6 6.1-17.7 17.1-24.6 24.5-7 7.4-16.6 17.9-21.4 23.4-4.8 5.5-16 19-24.8 30-8.9 11-21.8 27.6-28.7 37-7 9.4-18.5 25.3-25.7 35.5-7.1 10.2-19.7 28.6-28 41-8.2 12.4-19.2 29-24.3 37-5.1 8-14.5 22.8-20.8 33-6.4 10.2-20.8 34-32.2 53-11.4 19-28.9 48.9-39 66.5-10.1 17.6-26.2 46.2-35.8 63.5-9.6 17.3-24.6 44.9-33.3 61.3-8.7 16.3-16.4 29.7-16.9 29.7-0.5 0-8.3-9.1-17.2-20.2-8.9-11.2-22.9-28.4-31.2-38.3-8.2-9.9-19.7-23.4-25.5-30-5.8-6.6-17.1-19.2-25-28-8-8.8-24.5-25.9-36.6-38-12.1-12.1-28.7-27.9-36.9-35-8.2-7.2-19.4-16.5-25-20.9-5.5-4.3-14.4-10.9-19.6-14.6-5.2-3.8-13.8-9.4-19-12.6-5.2-3.2-14.7-8.3-21-11.5-6.3-3.1-16.2-7.4-22-9.4-5.8-2-15-4.5-20.5-5.6-6.7-1.4-14-2.1-22-2.1-7.3 0-15 0.6-19.5 1.6-4.1 0.8-11.1 3-15.5 4.7-4.4 1.8-11.8 5.7-16.5 8.7-4.7 3-11.9 8.9-16 13.1-4.1 4.2-10.5 12.1-14.2 17.6-3.7 5.5-8.9 14.7-11.6 20.5-2.8 5.8-6.6 15.2-8.7 21-2 5.8-5.2 16.6-7.1 24-1.9 7.4-4.8 21.3-6.4 30.8-1.7 9.4-3 18.6-3 20.2 0 1.9 0.7 3.3 1.7 3.9 1 0.4 4.5 1.1 7.8 1.5 3.3 0.3 14.6 1.7 25 3.1 17.9 2.3 19.1 2.3 20.2 0.7 0.7-0.9 1.5-4.4 1.8-7.7 0.4-3.3 2.1-13.6 4-23 1.8-9.4 5.3-23.1 7.8-30.5 2.4-7.4 6.1-16.9 8.2-21 2.1-4.1 5.5-10 7.5-13 2.1-3 5.8-7.4 8.4-9.8 2.5-2.3 7-5.4 9.8-6.9 4.9-2.6 6.1-2.8 16.8-2.7 10.1 0 12.7 0.4 21 3.2 5.2 1.7 13.8 5.3 19 8 5.2 2.6 13.6 7.3 18.5 10.4 4.9 3.1 15.3 10.3 23 16.1 7.7 5.8 19.4 15.2 26 20.9 6.6 5.6 21.1 19.3 32.4 30.3 11.2 11 27.4 27.6 36 37 8.6 9.4 21.8 24 29.2 32.5 7.4 8.5 19.1 22.3 26 30.5 6.9 8.2 18.8 22.9 26.5 32.5 7.7 9.6 17.9 22.5 22.6 28.5 4.8 6 9.1 12.1 9.6 13.5 0.9 2.2 0.4 3.5-3.8 10-2.6 4.1-13.1 20.1-23.2 35.5-10.1 15.4-24.4 36.5-31.8 47-7.3 10.5-18.8 26.2-25.3 35-6.6 8.8-17.2 22.5-23.6 30.5-6.4 8-14.7 18.1-18.5 22.5-3.8 4.4-12.8 14.5-20 22.4-7.2 7.9-18.5 19.4-25.1 25.5-6.7 6.1-15.9 14.2-20.5 17.9-4.7 3.8-12.6 9.6-17.5 12.9-4.9 3.3-13.1 7.9-18 10.4-4.9 2.4-12.8 5.3-17.5 6.5-6.3 1.6-10.3 2-15.5 1.6-4.8-0.3-8.9-1.4-13-3.3-3.3-1.6-8.7-5.4-12-8.5-3.3-3.1-8.3-8.9-11.2-13-2.8-4.1-7.8-13-11.2-19.9-3.3-6.9-8.1-18.6-10.6-26-2.5-7.4-5.9-18.5-7.5-24.5-1.6-6-4.2-17.1-5.9-24.5-1.6-7.4-4.1-20.3-5.5-28.5-1.4-8.3-3.2-19.7-4-25.5-0.9-5.8-2.4-18.6-3.5-28.5-1.1-9.9-2.7-25.9-3.5-35.5-0.9-9.6-2.2-29.9-3-45-0.9-15.1-1.7-31-1.8-35.2-0.2-4.2-0.7-8.1-1.3-8.7-0.6-0.6-10.1-0.6-27 0-14.3 0.5-26.6 1.1-27.3 1.4-0.9 0.4-1.1 3.2-0.7 11.3 0.3 5.9 1 19.5 1.5 30.2 0.6 10.7 1.7 28.3 2.5 39 0.9 10.7 2.2 25.8 3 33.5 0.8 7.7 1.7 16.7 2 20 0.4 3.3 2 15.5 3.7 27 1.6 11.5 4.5 29.1 6.4 39 1.8 9.9 5.2 25.4 7.4 34.5 2.3 9.1 6.4 23.5 9.2 32 2.8 8.5 7.1 20.2 9.5 26 2.4 5.8 6.9 15.2 9.9 21 3.1 5.8 8.6 14.8 12.2 20 3.7 5.2 10.2 13.1 14.7 17.6 4.4 4.4 10.7 10 14 12.4 3.3 2.4 9.6 6.3 14 8.5 4.4 2.3 11.8 5.2 16.5 6.5 7.5 2.2 10.5 2.5 25.5 2.5 15.5 0 17.9-0.3 27-2.8 5.5-1.5 14.3-4.6 19.5-6.8 5.2-2.3 12-5.5 15-7.1 3-1.7 7.7-4.5 10.5-6.1 2.7-1.7 8.8-5.8 13.5-9.1 4.7-3.3 13.2-9.8 19-14.5 5.8-4.6 20.2-18.2 32.1-30 11.8-11.9 27-28 33.7-35.9 6.7-7.8 18.2-21.7 25.5-31 7.4-9.2 18.6-23.8 25-32.5 6.5-8.6 18.6-25.5 26.9-37.5 8.4-11.9 22.3-32.4 30.8-45.4 8.5-13.1 16.1-23.8 16.7-23.8 0.7 0 4.1 3.9 7.5 8.6 3.5 4.8 6.8 9.2 7.3 9.8 0.5 0.6 4.3 5.6 8.4 11.1 4.1 5.5 12.9 17 19.5 25.5 6.6 8.5 17.4 22.2 24 30.5 6.7 8.2 19 23.3 27.5 33.5 8.5 10.2 21.6 25.5 29 34 7.5 8.5 19.7 22 27.1 30 7.4 8 18.4 19.6 24.5 25.9 6 6.2 18.6 18.6 28 27.4 9.4 8.8 22.9 21.1 30 27.2 7.1 6.1 17.7 14.9 23.5 19.5 5.8 4.6 15.7 12 22 16.5 6.3 4.4 17.1 11.6 24 15.9 6.9 4.3 19.7 11.3 28.5 15.6 8.8 4.3 20.5 9.5 26 11.5 5.5 2 14 4.8 19 6.1 5 1.3 13.5 3.1 19 3.9 5.5 0.8 15.8 1.5 23 1.5 7.4 0 17.1-0.7 22.5-1.6 5.2-0.9 13.1-2.8 17.5-4.1 4.4-1.4 10.9-3.9 14.5-5.5 3.6-1.6 10.1-5.1 14.5-7.8 4.4-2.7 12.3-8.4 17.5-12.8 5.2-4.3 13.3-12.4 18-17.8 4.7-5.4 12-15.1 16.2-21.4 4.1-6.3 10.3-16.7 13.6-23 3.4-6.3 8.3-16.7 11-23 2.7-6.3 6.6-16 8.5-21.5 2-5.5 5.4-15.8 7.7-23 2.2-7.2 6.5-22.9 9.5-35 3-12.1 7-30.3 8.9-40.5 1.9-10.2 4.6-25.9 6-35 1.4-9.1 3.2-21.9 4.1-28.5 0.9-6.6 2-16 2.5-21 0.6-5 1.4-13.3 2-18.5 0.5-5.2 1.2-12.4 1.5-16 0.3-3.6 0.7-9.2 1-12.5 0.3-3.3 1-12.1 1.5-19.5 0.5-7.4 1.7-26.8 2.5-43 0.8-16.2 1.8-45.6 2.2-65.2 0.7-31.3 0.6-35.7-0.7-36.2-0.8-0.2-12.8-0.7-26.5-0.9-13.8-0.3-25.7-0.2-26.5 0.3-1.3 0.7-1.6 5.9-2.3 32.1-0.5 17.3-1.5 44.7-2.2 60.9-0.8 16.2-1.9 36-2.5 44-0.5 8-1.4 19.9-2 26.5-0.5 6.6-1.4 17-2 23-0.6 6-1.9 18.4-3 27.5-1.1 9.1-2.9 22.8-4 30.5-1.1 7.7-3 19.2-4.1 25.5-1.1 6.3-3.4 18.3-5 26.5-1.6 8.3-5 23.1-7.6 33-2.5 9.9-7 25.4-10 34.5-3.1 9.1-7.8 21.7-10.5 28-2.7 6.3-7.4 16.2-10.5 22-3 5.8-8.3 14.5-11.6 19.5-3.4 5-10.4 13.3-15.7 18.6-5.7 5.7-12.3 11.2-16.5 13.7-3.8 2.3-9.5 5.1-12.5 6.3-3 1.1-8.8 2.7-12.8 3.5-3.9 0.8-10.5 1.4-14.5 1.4-3.9 0-11.5-0.7-16.7-1.6-5.2-0.8-14.5-3.1-20.5-5.1-6-2-18-7.2-26.5-11.4-8.5-4.3-21.8-11.9-29.5-17-7.7-5-18.5-12.6-24-16.7-5.5-4.1-13.6-10.5-18-14.1-4.4-3.6-13.4-11.3-20-17-6.6-5.8-21.6-20-33.4-31.6-11.7-11.5-28.4-28.7-37-38-8.6-9.3-20.6-22.6-26.7-29.5-6.1-6.9-16-18.3-22-25.5-6-7.1-16.8-20.2-24-29-7.2-8.8-19.8-24.5-27.9-35-8.2-10.5-23.2-30.2-33.5-44-10.2-13.7-20.4-27.5-22.6-30.5-3.2-4.3-3.9-6-3.4-8 0.4-1.4 9.1-18.2 19.5-37.5 10.3-19.2 27.1-50.1 37.3-68.5 10.1-18.4 26.4-47.5 36.2-64.5 9.7-17 23-40 29.5-51 6.5-11 18.8-31.5 27.3-45.5 8.5-14 21.8-35.4 29.5-47.5 7.7-12.1 21.2-32.8 30-46 8.8-13.2 20.8-30.7 26.5-39 5.8-8.2 17.7-24.7 26.5-36.5 8.8-11.8 21.3-28 27.7-36 6.5-8 16.2-19.7 21.6-26 5.5-6.3 17.6-19.4 27-29 9.5-9.6 22.2-21.8 28.4-27 6.1-5.2 15-12.3 19.8-15.7 4.8-3.4 12.7-8.5 17.7-11.2 5-2.8 13.3-6.4 18.5-8.2 7.4-2.4 11.3-3.1 17.5-3.2 5.9 0 9.4 0.6 13.5 2.2 3 1.2 7.7 3.8 10.3 5.9 2.7 2 7 6.3 9.5 9.4 2.6 3.1 6.9 9.4 9.6 14 2.8 4.6 6.7 12.4 8.9 17.3 2.1 4.9 5.7 14.2 7.8 20.5 2.2 6.3 5.5 17.4 7.4 24.5 1.8 7.1 4.9 20.9 6.9 30.5 1.9 9.6 4.4 23.6 5.5 31 1.1 7.4 2.7 19.4 3.6 26.5 0.9 7.1 2 17.5 2.5 23 0.6 5.5 1.4 14.9 2 21 0.5 6.1 1.6 22.3 2.4 36 0.8 13.8 1.8 32.6 2.2 42l0.6 17c42.1-1.3 54.7-2 55.2-2.3 0.6-0.4 0.7-8.9 0.2-21.2-0.4-11.3-1.3-30.9-2.2-43.5-0.8-12.6-2.1-30.6-2.9-40-0.8-9.4-2-21.1-2.5-26-0.6-4.9-1.5-12.6-2.1-17-0.6-4.4-2.2-15.4-3.5-24.5-1.4-9.1-3.6-22.4-5-29.5-1.4-7.1-3.9-18.6-5.5-25.5-1.6-6.9-4.6-17.9-6.5-24.5-2-6.6-5.8-18.1-8.6-25.5-2.7-7.4-7.9-19.4-11.5-26.5-3.6-7.1-9.3-17.1-12.6-22-3.4-4.9-10.2-13.2-15.2-18.3-4.9-5.1-12.6-11.8-17-14.7-4.4-3-10.9-6.7-14.5-8.3-3.6-1.7-10.3-4-15-5.2-5.4-1.4-12.5-2.3-19.5-2.5-6-0.2-13.7 0-17 0.5z"/>
		<path id="Path 3" class="s0" d="m1006.5 1271.7c-1.1 0.3-2.4 0.9-3 1.4-0.5 0.5 0.2 0.9 1.8 0.9 1.5 0 2.8-0.4 3-0.9 0.1-0.5 1.4-0.7 3-0.5 1.5 0.2 2.7 0.9 2.7 1.4 0 0.5-1.1 0.8-2.5 0.5-1.4-0.3-2.5 0-2.5 0.5 0 0.5 1.3 1.1 2.9 1.2 1.6 0.2 2.7 0 2.5-0.5-0.2-0.4 0.5-0.7 1.6-0.7 1.1 0 2-0.5 2-1 0-0.5-0.8-1.2-1.8-1.4-0.9-0.3-3.1-0.7-4.7-0.9-1.6-0.3-3.9-0.3-5 0zm13.5 3.3c1.3 0.8 1.3 0.9 0 1.4-0.8 0.2-2.2 0.7-3 1-0.8 0.3 0.5 0.3 3 0 2.5-0.4 4.7-0.8 5-1.1 0.3-0.2-0.2-0.8-1-1.3-0.8-0.6-2.4-1-3.5-1-1.6 0-1.7 0.2-0.5 1zm83.5 0c-1.1 0.5-3.2 1.1-4.8 1.4-1.5 0.3-2.7 1.1-2.7 1.6 0 0.5 0.8 1 1.8 1 0.9 0 2.6-0.7 3.7-1.5 1.1-0.8 2.6-1.2 3.3-0.9 0.6 0.2 1.9-0.3 2.8-1.1 1.4-1.4 1.4-1.5-0.3-1.4-1 0-2.7 0.4-3.8 0.9zm-76.1 2.5c0.9 0.8 2.8 1.5 4.3 1.5 2.7-0.1 2.7-0.1 0.8-1.5-1.1-0.9-3.1-1.5-4.4-1.5-2.2 0-2.2 0.1-0.7 1.5zm11 1.6c0.1 0.8 1.8 1.5 4.2 1.7 2.7 0.2 3.6 0 2.9-0.7-0.5-0.6-2.4-1.3-4.2-1.7-2.5-0.5-3.1-0.4-2.9 0.7zm48.1-0.4c-1.1 0.2-1.9 0.9-1.7 1.4 0.1 0.5 1.6 0.8 3.4 0.6 1.7-0.1 3.3-0.8 3.5-1.5 0.2-0.6-0.5-1.1-1.5-1.1-0.9 0.1-2.6 0.3-3.7 0.6zm-27.5 2.2c-2.2 0.7-2 0.8 2 1.5 2.5 0.4 7 0.4 10-0.1 4.9-0.6 5.2-0.8 2.5-1.4-1.7-0.4-5-0.7-7.5-0.7-2.5 0-5.6 0.3-7 0.7z"/>
	</g>
</svg>